{
  "accessors": [
    {
      "bufferView": 0,
      "byteOffset": 0,
      "componentType": 5126,
      "count": 2,
      "type": "MAT4"
    },
    {
      "bufferView": 1,
      "byteOffset": 0,
      "componentType": 5125,
      "count": 2796,
      "max": [
        711
      ],
      "min": [
        0
      ],
      "type": "SCALAR"
    },
    {
      "bufferView": 2,
      "byteOffset": 0,
      "componentType": 5126,
      "count": 712,
      "max": [
        0.9978368878364563,
        0.84655791521072388,
        0.99951547384262085
      ],
      "min": [
        -0.9978368878364563,
        -1,
        -0.99951547384262085
      ],
      "type": "VEC3"
    },
    {
      "bufferView": 3,
      "byteOffset": 0,
      "componentType": 5126,
      "count": 712,
      "max": [
        80.373001098632813,
        38.2686767578125,
        8.7520437240600586
      ],
      "min": [
        -87.273406982421875,
        -0.56510162353515625,
        -6.6726984977722168
      ],
      "type": "VEC3"
    },
    {
      "bufferView": 4,
      "byteOffset": 0,
      "componentType": 5126,
      "count": 712,
      "max": [
        0.97459983825683594,
        0.97364246845245361
      ],
      "min": [
        0.068938016891479492,
        0.038257598876953125
      ],
      "type": "VEC2"
    },
    {
      "bufferView": 5,
      "byteOffset": 0,
      "componentType": 5123,
      "count": 712,
      "type": "VEC4"
    },
    {
      "bufferView": 6,
      "byteOffset": 0,
      "componentType": 5126,
      "count": 712,
      "type": "VEC4"
    },
    {
      "bufferView": 7,
      "byteOffset": 0,
      "componentType": 5125,
      "count": 72,
      "max": [
        27
      ],
      "min": [
        0
      ],
      "type": "SCALAR"
    },
    {
      "bufferView": 8,
      "byteOffset": 0,
      "componentType": 5126,
      "count": 28,
      "max": [
        0.18564087152481079,
        0.98537540435791016,
        0.4716612696647644
      ],
      "min": [
        -0.1856408417224884,
        -0.98537516593933105,
        -0.47166123986244202
      ],
      "type": "VEC3"
    },
    {
      "bufferView": 9,
      "byteOffset": 0,
      "componentType": 5126,
      "count": 28,
      "max": [
        82.729972839355469,
        38.712299346923828,
        9.9896135330200195
      ],
      "min": [
        -89.909507751464844,
        29.647476196289063,
        -7.7033543586730957
      ],
      "type": "VEC3"
    },
    {
      "bufferView": 10,
      "byteOffset": 0,
      "componentType": 5126,
      "count": 28,
      "max": [
        0.5455394983291626,
        0.93494105339050293
      ],
      "min": [
        0.054314374923706055,
        0.78543484210968018
      ],
      "type": "VEC2"
    },
    {
      "bufferView": 11,
      "byteOffset": 0,
      "componentType": 5123,
      "count": 28,
      "type": "VEC4"
    },
    {
      "bufferView": 12,
      "byteOffset": 0,
      "componentType": 5126,
      "count": 28,
      "type": "VEC4"
    },
    {
      "bufferView": 13,
      "byteOffset": 0,
      "componentType": 5125,
      "count": 1188,
      "max": [
        269
      ],
      "min": [
        0
      ],
      "type": "SCALAR"
    },
    {
      "bufferView": 14,
      "byteOffset": 0,
      "componentType": 5126,
      "count": 270,
      "max": [
        0.99819648265838623,
        1,
        0.99657964706420898
      ],
      "min": [
        -0.99938303232192993,
        -1,
        -0.99992239475250244
      ],
      "type": "VEC3"
    },
    {
      "bufferView": 15,
      "byteOffset": 0,
      "componentType": 5126,
      "count": 270,
      "max": [
        33.993152618408203,
        58.943973541259766,
        38.161457061767578
      ],
      "min": [
        -40.947956085205078,
        -4.4126834869384766,
        -36.839366912841797
      ],
      "type": "VEC3"
    },
    {
      "bufferView": 16,
      "byteOffset": 0,
      "componentType": 5126,
      "count": 270,
      "max": [
        0.97302114963531494,
        0.95141816139221191
      ],
      "min": [
        0.027251005172729492,
        0.043910741806030273
      ],
      "type": "VEC2"
    },
    {
      "bufferView": 17,
      "byteOffset": 0,
      "componentType": 5123,
      "count": 270,
      "type": "VEC4"
    },
    {
      "bufferView": 18,
      "byteOffset": 0,
      "componentType": 5126,
      "count": 270,
      "type": "VEC4"
    },
    {
      "bufferView": 19,
      "byteOffset": 0,
      "componentType": 5125,
      "count": 960,
      "max": [
        323
      ],
      "min": [
        0
      ],
      "type": "SCALAR"
    },
    {
      "bufferView": 20,
      "byteOffset": 0,
      "componentType": 5126,
      "count": 324,
      "max": [
        0.070577755570411682,
        0.99938958883285522,
        0.070577673614025116
      ],
      "min": [
        -0.070577725768089294,
        -0.99938958883285522,
        -0.070577733218669891
      ],
      "type": "VEC3"
    },
    {
      "bufferView": 21,
      "byteOffset": 0,
      "componentType": 5126,
      "count": 324,
      "max": [
        80.619705200195313,
        -0.085281230509281158,
        84.02593994140625
      ],
      "min": [
        -87.190422058105469,
        -3.0828349590301514,
        -83.784233093261719
      ],
      "type": "VEC3"
    },
    {
      "bufferView": 22,
      "byteOffset": 0,
      "componentType": 5126,
      "count": 324,
      "max": [
        0.98800623416900635,
        0.96477788686752319
      ],
      "min": [
        0.016684472560882568,
        0.037038207054138184
      ],
      "type": "VEC2"
    },
    {
      "bufferView": 23,
      "byteOffset": 0,
      "componentType": 5123,
      "count": 324,
      "type": "VEC4"
    },
    {
      "bufferView": 24,
      "byteOffset": 0,
      "componentType": 5126,
      "count": 324,
      "type": "VEC4"
    },
    {
      "bufferView": 25,
      "byteOffset": 0,
      "componentType": 5125,
      "count": 960,
      "max": [
        335
      ],
      "min": [
        0
      ],
      "type": "SCALAR"
    },
    {
      "bufferView": 26,
      "byteOffset": 0,
      "componentType": 5126,
      "count": 336,
      "max": [
        0.81166023015975952,
        0.67270046472549438,
        0.97814762592315674
      ],
      "min": [
        -0.8116602897644043,
        -0.67270064353942871,
        -0.97814762592315674
      ],
      "type": "VEC3"
    },
    {
      "bufferView": 27,
      "byteOffset": 0,
      "componentType": 5126,
      "count": 336,
      "max": [
        17.28413200378418,
        4.3252906799316406,
        61.992191314697266
      ],
      "min": [
        -1.9112377166748047,
        -0.025886297225952148,
        49.327308654785156
      ],
      "type": "VEC3"
    },
    {
      "bufferView": 28,
      "byteOffset": 0,
      "componentType": 5126,
      "count": 336,
      "max": [
        0.65625,
        1.0000001192092896
      ],
      "min": [
        0.34374997019767761,
        0
      ],
      "type": "VEC2"
    },
    {
      "bufferView": 29,
      "byteOffset": 0,
      "componentType": 5123,
      "count": 336,
      "type": "VEC4"
    },
    {
      "bufferView": 30,
      "byteOffset": 0,
      "componentType": 5126,
      "count": 336,
      "type": "VEC4"
    },
    {
      "bufferView": 31,
      "byteOffset": 0,
      "componentType": 5125,
      "count": 132,
      "max": [
        33
      ],
      "min": [
        0
      ],
      "type": "SCALAR"
    },
    {
      "bufferView": 32,
      "byteOffset": 0,
      "componentType": 5126,
      "count": 34,
      "max": [
        0.67800885438919067,
        0.80327790975570679,
        0.84753060340881348
      ],
      "min": [
        -0.89727121591567993,
        -0.95864218473434448,
        -0.88273811340332031
      ],
      "type": "VEC3"
    },
    {
      "bufferView": 33,
      "byteOffset": 0,
      "componentType": 5126,
      "count": 34,
      "max": [
        21.141447067260742,
        12.001826286315918,
        62.470199584960938
      ],
      "min": [
        -4.9551949501037598,
        1.8751914501190186,
        48.613311767578125
      ],
      "type": "VEC3"
    },
    {
      "bufferView": 34,
      "byteOffset": 0,
      "componentType": 5126,
      "count": 34,
      "max": [
        0.875,
        1
      ],
      "min": [
        0.125,
        0
      ],
      "type": "VEC2"
    },
    {
      "bufferView": 35,
      "byteOffset": 0,
      "componentType": 5123,
      "count": 34,
      "type": "VEC4"
    },
    {
      "bufferView": 36,
      "byteOffset": 0,
      "componentType": 5126,
      "count": 34,
      "type": "VEC4"
    },
    {
      "bufferView": 37,
      "byteOffset": 0,
      "componentType": 5126,
      "count": 200,
      "max": [
        8.3333330154418945
      ],
      "min": [
        0.041666667908430099
      ],
      "type": "SCALAR"
    },
    {
      "bufferView": 38,
      "byteOffset": 0,
      "componentType": 5126,
      "count": 200,
      "max": [
        -3.3753905296325684,
        -4.5621514320373535,
        0.66630977392196655
      ],
      "min": [
        -3.3753905296325684,
        -4.5621514320373535,
        0.66630977392196655
      ],
      "type": "VEC3"
    },
    {
      "bufferView": 39,
      "byteOffset": 0,
      "componentType": 5126,
      "count": 200,
      "max": [
        8.3333330154418945
      ],
      "min": [
        0.041666667908430099
      ],
      "type": "SCALAR"
    },
    {
      "bufferView": 40,
      "byteOffset": 0,
      "componentType": 5126,
      "count": 200,
      "max": [
        6.1817239327410789e-08,
        6.1817239327410789e-08,
        0.70710676908493042,
        0.70710676908493042
      ],
      "min": [
        -0.70705723762512207,
        -0.70705723762512207,
        -0.70710676908493042,
        -0.70710676908493042
      ],
      "type": "VEC4"
    },
    {
      "bufferView": 41,
      "byteOffset": 0,
      "componentType": 5126,
      "count": 200,
      "max": [
        8.3333330154418945
      ],
      "min": [
        0.041666667908430099
      ],
      "type": "SCALAR"
    },
    {
      "bufferView": 42,
      "byteOffset": 0,
      "componentType": 5126,
      "count": 200,
      "max": [
        1,
        1,
        1
      ],
      "min": [
        1,
        1,
        1
      ],
      "type": "VEC3"
    }
  ],
  "animations": [
    {
      "channels": [
        {
          "sampler": 0,
          "target": {
            "node": 1,
            "path": "translation"
          }
        },
        {
          "sampler": 1,
          "target": {
            "node": 1,
            "path": "rotation"
          }
        },
        {
          "sampler": 2,
          "target": {
            "node": 1,
            "path": "scale"
          }
        }
      ],
      "name": "Skin:joint1",
      "samplers": [
        {
          "input": 37,
          "interpolation": "LINEAR",
          "output": 38
        },
        {
          "input": 39,
          "interpolation": "LINEAR",
          "output": 40
        },
        {
          "input": 41,
          "interpolation": "LINEAR",
          "output": 42
        }
      ]
    }
  ],
  "asset": {
    "generator": "glTF-Maya-Exporter ver1.5.0",
    "version": "2.0"
  },
  "bufferViews": [
    {
      "buffer": 0,
      "byteLength": 128,
      "byteOffset": 0
    },
    {
      "buffer": 0,
      "byteLength": 11184,
      "byteOffset": 128,
      "target": 34963
    },
    {
      "buffer": 0,
      "byteLength": 8544,
      "byteOffset": 11312,
      "target": 34962
    },
    {
      "buffer": 0,
      "byteLength": 8544,
      "byteOffset": 19856,
      "target": 34962
    },
    {
      "buffer": 0,
      "byteLength": 5696,
      "byteOffset": 28400,
      "target": 34962
    },
    {
      "buffer": 0,
      "byteLength": 5696,
      "byteOffset": 34096,
      "target": 34962
    },
    {
      "buffer": 0,
      "byteLength": 11392,
      "byteOffset": 39792,
      "target": 34962
    },
    {
      "buffer": 0,
      "byteLength": 288,
      "byteOffset": 51184,
      "target": 34963
    },
    {
      "buffer": 0,
      "byteLength": 336,
      "byteOffset": 51472,
      "target": 34962
    },
    {
      "buffer": 0,
      "byteLength": 336,
      "byteOffset": 51808,
      "target": 34962
    },
    {
      "buffer": 0,
      "byteLength": 224,
      "byteOffset": 52144,
      "target": 34962
    },
    {
      "buffer": 0,
      "byteLength": 224,
      "byteOffset": 52368,
      "target": 34962
    },
    {
      "buffer": 0,
      "byteLength": 448,
      "byteOffset": 52592,
      "target": 34962
    },
    {
      "buffer": 0,
      "byteLength": 4752,
      "byteOffset": 53040,
      "target": 34963
    },
    {
      "buffer": 0,
      "byteLength": 3240,
      "byteOffset": 57792,
      "target": 34962
    },
    {
      "buffer": 0,
      "byteLength": 3240,
      "byteOffset": 61032,
      "target": 34962
    },
    {
      "buffer": 0,
      "byteLength": 2160,
      "byteOffset": 64272,
      "target": 34962
    },
    {
      "buffer": 0,
      "byteLength": 2160,
      "byteOffset": 66432,
      "target": 34962
    },
    {
      "buffer": 0,
      "byteLength": 4320,
      "byteOffset": 68592,
      "target": 34962
    },
    {
      "buffer": 0,
      "byteLength": 3840,
      "byteOffset": 72912,
      "target": 34963
    },
    {
      "buffer": 0,
      "byteLength": 3888,
      "byteOffset": 76752,
      "target": 34962
    },
    {
      "buffer": 0,
      "byteLength": 3888,
      "byteOffset": 80640,
      "target": 34962
    },
    {
      "buffer": 0,
      "byteLength": 2592,
      "byteOffset": 84528,
      "target": 34962
    },
    {
      "buffer": 0,
      "byteLength": 2592,
      "byteOffset": 87120,
      "target": 34962
    },
    {
      "buffer": 0,
      "byteLength": 5184,
      "byteOffset": 89712,
      "target": 34962
    },
    {
      "buffer": 0,
      "byteLength": 3840,
      "byteOffset": 94896,
      "target": 34963
    },
    {
      "buffer": 0,
      "byteLength": 4032,
      "byteOffset": 98736,
      "target": 34962
    },
    {
      "buffer": 0,
      "byteLength": 4032,
      "byteOffset": 102768,
      "target": 34962
    },
    {
      "buffer": 0,
      "byteLength": 2688,
      "byteOffset": 106800,
      "target": 34962
    },
    {
      "buffer": 0,
      "byteLength": 2688,
      "byteOffset": 109488,
      "target": 34962
    },
    {
      "buffer": 0,
      "byteLength": 5376,
      "byteOffset": 112176,
      "target": 34962
    },
    {
      "buffer": 0,
      "byteLength": 528,
      "byteOffset": 117552,
      "target": 34963
    },
    {
      "buffer": 0,
      "byteLength": 408,
      "byteOffset": 118080,
      "target": 34962
    },
    {
      "buffer": 0,
      "byteLength": 408,
      "byteOffset": 118488,
      "target": 34962
    },
    {
      "buffer": 0,
      "byteLength": 272,
      "byteOffset": 118896,
      "target": 34962
    },
    {
      "buffer": 0,
      "byteLength": 272,
      "byteOffset": 119168,
      "target": 34962
    },
    {
      "buffer": 0,
      "byteLength": 544,
      "byteOffset": 119440,
      "target": 34962
    },
    {
      "buffer": 0,
      "byteLength": 800,
      "byteOffset": 119984
    },
    {
      "buffer": 0,
      "byteLength": 2400,
      "byteOffset": 120784
    },
    {
      "buffer": 0,
      "byteLength": 800,
      "byteOffset": 123184
    },
    {
      "buffer": 0,
      "byteLength": 3200,
      "byteOffset": 123984
    },
    {
      "buffer": 0,
      "byteLength": 800,
      "byteOffset": 127184
    },
    {
      "buffer": 0,
      "byteLength": 2400,
      "byteOffset": 127984
    }
  ],
  "buffers": [
    {
      "byteLength": 130384,
      "uri": "Set_anim_Test_06_Bake_anim.bin"
    }
  ],
  "images": [
    {
      "name": "New cylinder tex3",
      "uri": ".\/New cylinder tex3.jpg"
    },
    {
      "name": "New goundtex2",
      "uri": ".\/New goundtex2.jpg"
    },
    {
      "name": "The arch texture1",
      "uri": ".\/The arch texture1.jpg"
    }
  ],
  "materials": [
    {
      "alphaMode": "OPAQUE",
      "emissiveFactor": [
        0,
        0,
        0
      ],
      "name": "lambert7",
      "pbrMetallicRoughness": {
        "baseColorFactor": [
          1,
          1,
          1,
          1
        ],
        "baseColorTexture": {
          "index": 1
        },
        "metallicFactor": 0,
        "roughnessFactor": 1
      }
    },
    {
      "alphaMode": "OPAQUE",
      "emissiveFactor": [
        0,
        0,
        0
      ],
      "name": "lambert6",
      "pbrMetallicRoughness": {
        "baseColorFactor": [
          1,
          1,
          1,
          1
        ],
        "metallicFactor": 0,
        "roughnessFactor": 1
      }
    },
    {
      "alphaMode": "OPAQUE",
      "emissiveFactor": [
        0,
        0,
        0
      ],
      "name": "lambert5",
      "pbrMetallicRoughness": {
        "baseColorFactor": [
          1,
          1,
          1,
          1
        ],
        "baseColorTexture": {
          "index": 2
        },
        "metallicFactor": 0,
        "roughnessFactor": 1
      }
    },
    {
      "alphaMode": "OPAQUE",
      "emissiveFactor": [
        0,
        0,
        0
      ],
      "name": "lambert4",
      "pbrMetallicRoughness": {
        "baseColorFactor": [
          1,
          1,
          1,
          1
        ],
        "baseColorTexture": {
          "index": 0
        },
        "metallicFactor": 0,
        "roughnessFactor": 1
      }
    },
    {
      "alphaMode": "OPAQUE",
      "emissiveFactor": [
        0,
        0,
        0
      ],
      "name": "lambert2",
      "pbrMetallicRoughness": {
        "baseColorFactor": [
          0,
          1,
          1,
          1
        ],
        "metallicFactor": 0,
        "roughnessFactor": 1
      }
    },
    {
      "alphaMode": "OPAQUE",
      "emissiveFactor": [
        0,
        0,
        0
      ],
      "name": "lambert1",
      "pbrMetallicRoughness": {
        "baseColorFactor": [
          0.5,
          0.5,
          0.5,
          1
        ],
        "metallicFactor": 0,
        "roughnessFactor": 1
      }
    }
  ],
  "meshes": [
    {
      "name": "polySurface38Shape",
      "primitives": [
        {
          "attributes": {
            "JOINTS_0": 5,
            "NORMAL": 2,
            "POSITION": 3,
            "TEXCOORD_0": 4,
            "WEIGHTS_0": 6
          },
          "indices": 1,
          "material": 2,
          "mode": 4
        }
      ]
    },
    {
      "name": "polySurface38Shape",
      "primitives": [
        {
          "attributes": {
            "JOINTS_0": 11,
            "NORMAL": 8,
            "POSITION": 9,
            "TEXCOORD_0": 10,
            "WEIGHTS_0": 12
          },
          "indices": 7,
          "material": 1,
          "mode": 4
        }
      ]
    },
    {
      "name": "polySurface38Shape",
      "primitives": [
        {
          "attributes": {
            "JOINTS_0": 17,
            "NORMAL": 14,
            "POSITION": 15,
            "TEXCOORD_0": 16,
            "WEIGHTS_0": 18
          },
          "indices": 13,
          "material": 3,
          "mode": 4
        }
      ]
    },
    {
      "name": "polySurface38Shape",
      "primitives": [
        {
          "attributes": {
            "JOINTS_0": 23,
            "NORMAL": 20,
            "POSITION": 21,
            "TEXCOORD_0": 22,
            "WEIGHTS_0": 24
          },
          "indices": 19,
          "material": 0,
          "mode": 4
        }
      ]
    },
    {
      "name": "polySurface38Shape",
      "primitives": [
        {
          "attributes": {
            "JOINTS_0": 29,
            "NORMAL": 26,
            "POSITION": 27,
            "TEXCOORD_0": 28,
            "WEIGHTS_0": 30
          },
          "indices": 25,
          "material": 5,
          "mode": 4
        }
      ]
    },
    {
      "name": "polySurface38Shape",
      "primitives": [
        {
          "attributes": {
            "JOINTS_0": 35,
            "NORMAL": 32,
            "POSITION": 33,
            "TEXCOORD_0": 34,
            "WEIGHTS_0": 36
          },
          "indices": 31,
          "material": 4,
          "mode": 4
        }
      ]
    }
  ],
  "nodes": [
    {
      "children": [
        1,
        3,
        4,
        5,
        6,
        7,
        8
      ],
      "name": "Set_anim_Test_06_Bake_anim"
    },
    {
      "children": [
        2
      ],
      "name": "joint1",
      "rotation": [
        0,
        0,
        0.70710676908493042,
        0.70710676908493042
      ],
      "translation": [
        -3.3753905296325684,
        -4.5621514320373535,
        0.66630977392196655
      ]
    },
    {
      "name": "joint2",
      "rotation": [
        0,
        0,
        -0.70710676908493042,
        0.70710676908493042
      ],
      "translation": [
        63.002155303955078,
        1.3989288683892171e-14,
        0
      ]
    },
    {
      "mesh": 0,
      "name": "polySurface38_1",
      "skin": 0
    },
    {
      "mesh": 1,
      "name": "polySurface38_2",
      "skin": 0
    },
    {
      "mesh": 2,
      "name": "polySurface38_3",
      "skin": 0
    },
    {
      "mesh": 3,
      "name": "polySurface38_4",
      "skin": 0
    },
    {
      "mesh": 4,
      "name": "polySurface38_5",
      "skin": 0
    },
    {
      "mesh": 5,
      "name": "polySurface38_6",
      "skin": 0
    }
  ],
  "samplers": [
    {
      "magFilter": 9729,
      "minFilter": 9729,
      "wrapS": 10497,
      "wrapT": 10497
    }
  ],
  "scene": 0,
  "scenes": [
    {
      "nodes": [
        0
      ]
    }
  ],
  "skins": [
    {
      "inverseBindMatrices": 0,
      "joints": [
        1,
        2
      ],
      "name": "joint1",
      "skeleton": 1
    }
  ],
  "textures": [
    {
      "sampler": 0,
      "source": 0
    },
    {
      "sampler": 0,
      "source": 1
    },
    {
      "sampler": 0,
      "source": 2
    }
  ]
}
